<svg width="6" height="3" viewBox="0 0 6 3" fill="none" xmlns="http://www.w3.org/2000/svg">
<path d="M0.411571 1.88297L0.411572 1.88296C0.814996 0.828184 1.88079 0.121875 3.0621 0.121875C4.24334 0.121875 5.30929 0.828254 5.71248 1.88296C5.71248 1.88297 5.71248 1.88297 5.71248 1.88297L5.66578 1.90083C5.78867 2.22212 5.62109 2.57982 5.29148 2.69964L0.411571 1.88297ZM0.411571 1.88297C0.278372 2.23129 0.460497 2.61759 0.815489 2.74663M0.411571 1.88297L0.815489 2.74663M0.815489 2.74663C1.17001 2.87563 1.5657 2.70022 1.69857 2.35256L0.815489 2.74663ZM5.06906 2.78895C5.14876 2.78895 5.2297 2.77532 5.30856 2.74663L1.69857 2.35255C1.90111 1.82299 2.44794 1.46394 3.06203 1.46394C3.67612 1.46394 4.22303 1.823 4.42548 2.35256C4.52888 2.62302 4.79128 2.78895 5.06906 2.78895Z" fill="white" stroke="white" stroke-width="0.1"/>
</svg>
