<svg width="9" height="12" viewBox="0 0 9 12" fill="none" xmlns="http://www.w3.org/2000/svg">
<path d="M7.71156 6.51793C7.06012 6.07615 6.22008 5.80546 5.45019 5.59314V2.51421C6.04508 2.59137 6.5484 2.76365 6.90469 2.97643C7.27583 3.19808 7.47331 3.45439 7.47331 3.68285C7.47331 4.05465 7.78206 4.35388 8.16027 4.35388C8.53848 4.35388 8.84722 4.05465 8.84722 3.68285C8.84722 3.02726 8.47315 2.44114 7.85886 1.99793C7.25403 1.56156 6.41271 1.2605 5.45019 1.16269V1.13665C5.45019 0.764852 5.14144 0.465625 4.76323 0.465625C4.38502 0.465625 4.07628 0.764852 4.07628 1.13665V1.16269C3.11375 1.2605 2.27243 1.56156 1.66761 1.99793C1.05331 2.44114 0.679248 3.02726 0.679248 3.68285C0.679248 4.61036 1.15075 5.24126 1.81488 5.69166C2.46631 6.13346 3.30635 6.40416 4.07628 6.61648V9.69541C3.48139 9.61826 2.97807 9.44597 2.62178 9.23319C2.25063 9.01154 2.05315 8.75524 2.05315 8.52677C2.05315 8.15497 1.74441 7.85574 1.3662 7.85574C0.987991 7.85574 0.679248 8.15497 0.679248 8.52677C0.679248 9.18236 1.05331 9.76848 1.66761 10.2117C2.27243 10.6481 3.11375 10.9491 4.07628 11.0469V11.073C4.07628 11.4448 4.38502 11.744 4.76323 11.744C5.14144 11.744 5.45019 11.4448 5.45019 11.073V11.0469C6.41271 10.9491 7.25403 10.6481 7.85886 10.2117C8.47315 9.76848 8.84722 9.18236 8.84722 8.52677C8.84722 7.59922 8.3757 6.96832 7.71156 6.51793ZM4.07628 2.51421V5.21038C3.32859 4.97809 2.82483 4.7569 2.50666 4.51552C2.18275 4.26979 2.05315 4.00494 2.05315 3.68285C2.05315 3.45439 2.25063 3.19808 2.62178 2.97643C2.97807 2.76365 3.48139 2.59137 4.07628 2.51421ZM6.90466 9.23327C6.54836 9.44605 6.04504 9.61833 5.45019 9.69549V6.99931C6.19788 7.23157 6.70163 7.45276 7.01981 7.69415C7.34372 7.93989 7.47331 8.20476 7.47331 8.52685C7.47331 8.75531 7.27582 9.01162 6.90466 9.23327Z" fill="white" stroke="white" stroke-width="0.1"/>
</svg>
